<svg xmlns="http://www.w3.org/2000/svg" xmlns:xlink="http://www.w3.org/1999/xlink" width="603" height="582"><defs><linearGradient id="a" x1=".5" x2=".357" y2=".763" gradientUnits="objectBoundingBox"><stop offset="0" stop-color="#f04b1a"/><stop offset="1" stop-color="#f04b1a" stop-opacity="0"/></linearGradient><linearGradient id="c" x2=".45" y2=".909" xlink:href="#a"/><clipPath id="b"><path d="M0 0h603v582H0z"/></clipPath></defs><g data-name="Artboard – 1" clip-path="url(#b)"><path fill="rgba(255,255,255,0)" d="M0 0h603v582H0z"/><g data-name="Path 26" transform="rotate(14 194.72 172.436)" fill="url(#a)"><path d="M358.36-42.064l175.951 517.146-436.7 112.75z"/><path d="M357.81-25.05L107.753 579.016 526.547 470.89 357.81-25.05m.549-17.013L534.31 475.082 97.609 587.832 358.36-42.064z" fill="rgba(240,75,26,0.4)"/></g><g data-name="Path 27" transform="rotate(14 291.564 792.67)" fill="url(#c)" style="mix-blend-mode:overlay;isolation:isolate"><path d="M344.729-37.508L535 480.829 97.609 592.819z"/><path d="M344.544-20.599L107.472 584.1l419.605-107.436L344.544-20.6m.185-16.909l190.269 518.337L97.609 592.82l247.12-630.327z" fill="rgba(240,75,26,0.39)"/></g><g data-name="Ellipse 11" transform="translate(0 523)" fill="rgba(240,75,26,0.38)" stroke="rgba(240,75,26,0.31)" stroke-width="6" style="mix-blend-mode:overlay;isolation:isolate"><ellipse cx="301" cy="28" rx="301" ry="28" stroke="none"/><ellipse cx="301" cy="28" rx="298" ry="25" fill="none"/></g></g></svg>